<svg class="undefined css-1emgvlg e10fsun60" height="15" width="15" viewBox="0 0 15 15" xmlns="http://www.w3.org/2000/svg" role="img" aria-hidden="true" alt=""><path d="m10.16 5.34c.84 0 1.63.15 2.35.41.04-.24.07-.49.07-.74 0-2.76-2.82-5.01-6.29-5.01s-6.29 2.25-6.29 5.02c0 1.43.75 2.72 1.96 3.63l-.02-.01s.43.28.31.86-.22.99-.14 1.11.29-.02 1.19-.57c.41-.28.77-.29 1-.26.33-2.5 2.83-4.44 5.86-4.44zm-1.79-2.74c.48 0 .87.37.87.83s-.39.83-.87.83-.87-.37-.87-.83.39-.83.87-.83zm-5.04.83c0-.46.39-.83.87-.83s.87.37.87.83-.39.83-.87.83-.87-.37-.87-.83zm11.67 6.97c0-2.27-2.17-4.11-4.84-4.11s-4.84 1.84-4.84 4.11 2.17 4.11 4.84 4.11c.47 0 .91-.06 1.34-.16l-.01.01s.01 0 .02-.01c.06-.01.12-.03.18-.05.18-.03.46-.02.79.21.69.45.86.56.92.47.06-.1-.02-.43-.11-.91-.1-.48.24-.7.24-.7l-.01.01c.9-.76 1.48-1.81 1.48-2.98zm-6.44-.63c-.37 0-.67-.3-.67-.68s.3-.68.67-.68.67.3.67.68-.3.68-.67.68zm3.21 0c-.37 0-.67-.3-.67-.68s.3-.68.67-.68.67.3.67.68-.3.68-.67.68z"/></svg>