<svg class="undefined css-1emgvlg e10fsun60" height="15" width="15" viewBox="0 0 15 15" xmlns="http://www.w3.org/2000/svg" role="img" aria-hidden="true" alt=""><path d="M14.47,8.4c-.07-.72-.14-1-.65-.72s-1.44.61-1.91-1a2.54,2.54,0,0,1,.29-1.75c.15-.34.42-.91.84-.95s.77.25,1,0h0c-.13-.24-.26-.46-.4-.68l-.09-.06s-1.39-.42-1.42.22.21.74-.43.57-.18-.57,0-.61.07-.21,0-.3-.27-.22-.24-.39a2,2,0,0,1,.19-.42c0-.11.17-.32.11-.44s-.54-.41-.7,0-.45-.36-.54-.49h0A.64.64,0,0,1,10.5,1a.53.53,0,0,1,.17-.31A6.92,6.92,0,0,0,5.87.25C5.76.4,5.65.6,5.76.68A1.08,1.08,0,0,0,6,.83c.15.07.48.17.52.34s-.2.32-.82.44S6,2.76,6.22,2.76s.43-.82.6-.84h0a1.5,1.5,0,0,1,1,.51c.36.36.31,1.15-.1.93s-1.44.41-1.61.77a1.85,1.85,0,0,1-.35.48c-.14.13-.27.26-.4.4s0,.31,0,.44,0,.24-.11.29-.26-.13-.29-.24S4.5,5,4.07,5.31s0,1.37.36,2,1.49.51,2,.53a1.53,1.53,0,0,1,1.15.6c.17.27.7,0,.8.29s.34.65,1.15.79,1.06.7.51,1.37-1,1.21-1.18,1.42a2.14,2.14,0,0,1-.58.5,5.74,5.74,0,0,1-.66.43.82.82,0,0,0-.43.41,2.94,2.94,0,0,0-.13.67v.1a3.88,3.88,0,0,1-.65-2.88l-.07,0h0A2.88,2.88,0,0,1,5.17,10.4a2.7,2.7,0,0,1-.29-.62A1.31,1.31,0,0,1,5,8.87c0-.13.12-.26.18-.38s.26-.37,0-.45S4.9,8,4.75,8,4.24,7.53,4,7.32a5.32,5.32,0,0,0-.7-.64A2,2,0,0,1,2.5,5.42a5.4,5.4,0,0,1,.14-1.55,2.61,2.61,0,0,1,.48-1.32A5.48,5.48,0,0,1,3.68,2a1.43,1.43,0,0,0,.61-1,1.1,1.1,0,0,1,0-.18h0A7.54,7.54,0,0,0,.52,7.5,7.36,7.36,0,0,0,7.73,15a7.17,7.17,0,0,0,6.51-4.28.55.55,0,0,1,0-.18c0-.45.15-.9.19-1.35a3.48,3.48,0,0,0,0-.79Z"/></svg>