<svg class="undefined css-1emgvlg e10fsun60" height="15" width="15" viewBox="0 0 15 15" xmlns="http://www.w3.org/2000/svg" role="img" aria-hidden="true" alt=""><path d="m10.86 0h-6.72c-2.28 0-4.14 1.86-4.14 4.14v6.72c0 2.28 1.86 4.14 4.14 4.14h6.72c2.28 0 4.14-1.86 4.14-4.14v-6.72c0-2.28-1.86-4.14-4.14-4.14zm0 13.67h-6.72c-1.55 0-2.81-1.26-2.81-2.81v-6.72c0-1.55 1.26-2.81 2.81-2.81h6.72c1.55 0 2.81 1.26 2.81 2.81v6.72c0 1.55-1.26 2.81-2.81 2.81zm-3.36-10.13c-2.13 0-3.87 1.73-3.87 3.87 0 2.13 1.73 3.86 3.87 3.86 2.13 0 3.87-1.73 3.87-3.86 0-2.14-1.74-3.87-3.87-3.87zm0 6.4c-1.4 0-2.53-1.14-2.53-2.53 0-1.4 1.14-2.53 2.53-2.53s2.53 1.14 2.53 2.53-1.13 2.53-2.53 2.53zm4.72-7.25c.18.18.29.43.29.69s-.1.51-.29.69c-.18.18-.43.29-.69.29s-.51-.1-.69-.29c-.18-.18-.29-.43-.29-.69s.1-.51.29-.69c.18-.18.43-.29.69-.29.25.01.51.11.69.29z"/></svg>